<svg xmlns="http://www.w3.org/2000/svg" version="1.1" xmlns:xlink="http://www.w3.org/1999/xlink" width="32" height="32"><svg xmlns="http://www.w3.org/2000/svg" width="32" height="32" viewBox="0 0 40 40" fill="none">
                        <path d="M8 34 Q20 34, 32 28 Q20 22, 8 12 Q20 6, 32 6" stroke="#3498db" stroke-width="2.5" stroke-linecap="round" fill="none"></path>
                        <g>
                            <path d="M4 31c0-3 2.6-5.6 5.6-5.6s5.6 2.6 5.6 5.6-5.6 11.2-5.6 11.2-5.6-8.2-5.6-11.2z" fill="#3498db"></path>
                            <circle cx="9.6" cy="31" r="3.2" fill="#fff"></circle>
                        </g>
                        <g>
                            <path d="M22.8 25c0-3 2.6-5.6 5.6-5.6s5.6 2.6 5.6 5.6-5.6 11.2-5.6 11.2-5.6-8.2-5.6-11.2z" fill="#f1c40f"></path>
                            <circle cx="28.4" cy="25" r="3.2" fill="#fff"></circle>
                        </g>
                        <g>
                            <path d="M4 9c0-3 2.6-5.6 5.6-5.6s5.6 2.6 5.6 5.6-5.6 11.2-5.6 11.2-5.6-8.2-5.6-11.2z" fill="#e67e22"></path>
                            <circle cx="9.6" cy="9" r="3.2" fill="#fff"></circle>
                        </g>
                        <g>
                            <path d="M22.8 3c0-3 2.6-5.6 5.6-5.6s5.6 2.6 5.6 5.6-5.6 11.2-5.6 11.2-5.6-8.2-5.6-11.2z" fill="#e74c3c"></path>
                            <circle cx="28.4" cy="3" r="3.2" fill="#fff"></circle>
                        </g>
                    </svg><style>@media (prefers-color-scheme: light) { :root { filter: none; } }
@media (prefers-color-scheme: dark) { :root { filter: none; } }
</style></svg>